<?xml version="1.0" encoding="UTF-8"?>
<svg xmlns="http://www.w3.org/2000/svg" viewBox="0 0 191.011 77.184" role="img" aria-labelledby="title">
  <title id="title">Pac-12 Conference</title>
  <g transform="matrix(.3125 0 0 -.3125 0 162.29)">
    <g fill="#000007">
      <path d="M65.624 450.08s-18.575.042-34.375-.02v33.028c27.597.041 36.017-.05 52.394-.01-9.584-17.717-9.761-18.075-18.019-33zm-65.624 63.94V323.41h30.677c.194.347.393.716.571 1.041-.081 49.543 0 94.801 0 94.801s17.942.021 52.002.021c3.819 7.283 32.763 59.427 52 94.75H0"/>
      <path d="M181.63 482.69c.021-.01 10.011-17.717 17.871-32.63h-35.349c8.416 15.8 17.407 32.917 17.478 32.63zm-34.491-63.455c13.968-.021 51.184 0 69.28 0 19.074-34.498 37.802-68.626 52.699-95.832h35.532c-36.512 66.811-93.791 171.33-104.89 190.6 0 0 .198.021-.031.021-1.332.031-27.99 0-35.197 0-.066.02.204.01-.081.02-11.11-19.28-68.307-123.83-104.76-190.64h34.726c14.903 27.195 33.646 61.323 52.721 95.832"/>
      <path d="M364.61 419.23c-11.899 0-21.196.042-31.427.042V388.71c-16.509 29.173-20.217 37.63-52.031 94.404 24.164 0 25.629-.011 52.031-.011.052-11.097 0-21.42 0-33.088 15.779 0 31.296.091 31.296.091 0 38.915.008 63.926 0 63.926-21.111 0-59.744.041-135.33 0 0 0-.368.031-.312-.052 33.469-59.6 76.452-138.32 105.03-190.57h30.849c-.046 41.986-.112 88.906-.112 95.821"/>
      <path d="M36.885 277.94c0-3.081-2.438-5.6-5.6-5.6H5.6c-3.02 0-5.601 2.519-5.601 5.6v24.604c0 3.089 2.581 5.609 5.6 5.609h25.684c3.162 0 5.6-2.52 5.6-5.609v-6.672l-7.467-1.214v7.242H7.467v-23.246h21.951v7.326l7.467-1.297v-6.743m33.252.72h27.275v23.246H70.137V278.66zm-1.79-6.314c-3.085 0-5.666 2.519-5.666 5.6v24.604c0 3.089 2.581 5.608 5.666 5.608H99.27c3.091 0 5.6-2.519 5.6-5.608v-24.604c0-3.081-2.509-5.6-5.6-5.6H68.347m96.983-.006l-27.195 26.551V272.34h-7.466v35.813h7.466l27.195-26.479v26.479h7.527V272.34h-7.527m67.99 29.56h-27.198v-8.536h14.927v-6.304h-14.927v-14.72h-7.457v35.813h34.655V301.9m23.72-29.56v35.813h34.66V301.9h-27.205v-8.536h14.93v-6.304h-14.93v-8.406H291.7v-6.314h-34.66m69.98 20.82h21.033c.641 0 .928.715.928.999v6.743c0 .653-.576.999-.928.999H327.02v-8.741zm0-20.819h-7.46v35.813h31.288c3.158 0 5.595-2.519 5.595-5.609v-10.108c0-3.012-2.437-5.529-5.595-5.529h-7.104l16.068-14.568h-10.045l-15.93 14.568h-6.817V272.34m58.43 0v35.813h34.66V301.9h-27.199v-8.536h14.924v-6.304h-14.924v-8.406h27.199v-6.314h-34.66m95.11 0l-27.195 26.551V272.34h-7.461v35.813h7.461l27.195-26.479v26.479h7.538V272.34h-7.538m70.21 5.6c0-3.081-2.437-5.6-5.589-5.6h-25.694c-3.015 0-5.59 2.519-5.59 5.6v24.604c0 3.089 2.575 5.609 5.59 5.609h25.694c3.152 0 5.589-2.52 5.589-5.609v-6.672l-7.456-1.214v7.242h-21.961v-23.246h21.961v7.326l7.456-1.297v-6.743m25.81-5.6v35.813h34.656V301.9h-27.2v-8.536h14.933v-6.304h-14.933v-8.406h27.2v-6.314H576.58"/>
    </g>
    <path fill="#0072bc" d="M611.18 354.52l-107.45.008 100.74 102.33v42.197s-36.642 20.274-78.136 20.274c-41.486 0-72.131-20.274-72.131-20.274v-43.699h32.618l-.02 22.637s5.818 10.106 39.533 10.106c33.723 0 43.402-11.966 43.402-11.966l-.018-9.325-115.51-112.45v-30.705h131.82c10.052 11.512 25.156 30.86 25.156 30.86"/>
    <path fill="#0072bc" d="M394.18 323.66h31.236v191.12s-15.617-2.307-31.236-15.728v-175.4"/>
  </g>
</svg>
